<svg xmlns="http://www.w3.org/2000/svg" xmlns:xlink="http://www.w3.org/1999/xlink" xml:space="preserve" style="shape-rendering:geometricPrecision;text-rendering:geometricPrecision;image-rendering:optimizeQuality;" viewBox="0 0 100 100" x="0px" y="0px" fill-rule="evenodd" clip-rule="evenodd"><defs><style type="text/css">
   
    .fil0 {fill:black}
   
  </style></defs><g><path class="fil0" d="M60.3548 25.9467l6.88824 0 0 -3.02483 7.96542 0 0 3.02483 3.83861 0 0 66.2675 2.80986 0 0 2.78742 -63.7174 0 0 -2.78742 2.81105 0 0 -84.2263 4.16224 0 0 -2.98703 7.16817 0 0 2.98703 28.0738 0 0 17.9588zm-18.769 42.0995l4.2898 0 0 4.2898 -4.2898 0 0 -4.2898zm-5.49099 0l4.2898 0 0 4.2898 -4.2898 0 0 -4.2898zm-5.49099 0l4.2898 0 0 4.2898 -4.2898 0 0 -4.2898zm-5.49099 0l4.2898 0 0 4.2898 -4.2898 0 0 -4.2898zm16.473 -16.0135l4.2898 0 0 4.2898 -4.2898 0 0 -4.2898zm-5.49099 0l4.2898 0 0 4.2898 -4.2898 0 0 -4.2898zm-5.49099 0l4.2898 0 0 4.2898 -4.2898 0 0 -4.2898zm-5.49099 0l4.2898 0 0 4.2898 -4.2898 0 0 -4.2898zm16.473 -16.0123l4.2898 0 0 4.2898 -4.2898 0 0 -4.2898zm-5.49099 0l4.2898 0 0 4.2898 -4.2898 0 0 -4.2898zm-5.49099 0l4.2898 0 0 4.2898 -4.2898 0 0 -4.2898zm-5.49099 0l4.2898 0 0 4.2898 -4.2898 0 0 -4.2898zm16.473 25.564l4.2898 0 0 4.2898 -4.2898 0 0 -4.2898zm-5.49099 0l4.2898 0 0 4.2898 -4.2898 0 0 -4.2898zm-5.49099 0l4.2898 0 0 4.2898 -4.2898 0 0 -4.2898zm-5.49099 0l4.2898 0 0 4.2898 -4.2898 0 0 -4.2898zm16.473 -16.0123l4.2898 0 0 4.2898 -4.2898 0 0 -4.2898zm-5.49099 0l4.2898 0 0 4.2898 -4.2898 0 0 -4.2898zm-5.49099 0l4.2898 0 0 4.2898 -4.2898 0 0 -4.2898zm-5.49099 0l4.2898 0 0 4.2898 -4.2898 0 0 -4.2898zm16.473 -16.0123l4.2898 0 0 4.28862 -4.2898 0 0 -4.28862zm-5.49099 0l4.2898 0 0 4.28862 -4.2898 0 0 -4.28862zm-5.49099 0l4.2898 0 0 4.28862 -4.2898 0 0 -4.28862zm-5.49099 0l4.2898 0 0 4.28862 -4.2898 0 0 -4.28862zm0 -9.55165l4.2898 0 0 4.2898 -4.2898 0 0 -4.2898zm5.49099 0l4.2898 0 0 4.2898 -4.2898 0 0 -4.2898zm5.49099 0l4.2898 0 0 4.2898 -4.2898 0 0 -4.2898zm5.49099 0l4.2898 0 0 4.2898 -4.2898 0 0 -4.2898zm5.49099 0l4.2898 0 0 4.2898 -4.2898 0 0 -4.2898zm5.49099 0l4.2898 0 0 4.2898 -4.2898 0 0 -4.2898zm-27.4549 -6.46186l4.2898 0 0 4.2898 -4.2898 0 0 -4.2898zm5.49099 0l4.2898 0 0 4.2898 -4.2898 0 0 -4.2898zm5.49099 0l4.2898 0 0 4.2898 -4.2898 0 0 -4.2898zm5.49099 0l4.2898 0 0 4.2898 -4.2898 0 0 -4.2898zm5.49099 0l4.2898 0 0 4.2898 -4.2898 0 0 -4.2898zm5.49099 0l4.2898 0 0 4.2898 -4.2898 0 0 -4.2898zm10.7706 17.5029l3.6083 0 0 9.0544 -3.6083 0 0 -9.0544zm9.23747 45.6393l3.60948 0 0 9.0544 -3.60948 0 0 -9.0544zm0 -11.4095l3.60948 0 0 9.0544 -3.60948 0 0 -9.0544zm0 -11.4095l3.60948 0 0 9.0544 -3.60948 0 0 -9.0544zm0 -11.4095l3.60948 0 0 9.05322 -3.60948 0 0 -9.05322zm-4.61815 34.2286l3.6083 0 0 9.0544 -3.6083 0 0 -9.0544zm0 -11.4095l3.6083 0 0 9.0544 -3.6083 0 0 -9.0544zm0 -11.4095l3.6083 0 0 9.0544 -3.6083 0 0 -9.0544zm0 -11.4095l3.6083 0 0 9.05322 -3.6083 0 0 -9.05322zm-4.61933 34.2286l3.6083 0 0 9.0544 -3.6083 0 0 -9.0544zm0 -11.4095l3.6083 0 0 9.0544 -3.6083 0 0 -9.0544zm0 -11.4095l3.6083 0 0 9.0544 -3.6083 0 0 -9.0544zm0 -11.4095l3.6083 0 0 9.05322 -3.6083 0 0 -9.05322zm-9.23747 -11.4107l3.6083 0 0 9.0544 -3.6083 0 0 -9.0544zm0 11.4107l3.6083 0 0 9.05322 -3.6083 0 0 -9.05322zm0 11.4095l3.6083 0 0 9.0544 -3.6083 0 0 -9.0544zm0 11.4095l3.6083 0 0 9.0544 -3.6083 0 0 -9.0544zm0 11.4095l3.6083 0 0 9.0544 -3.6083 0 0 -9.0544zm18.4749 -45.6393l3.60948 0 0 9.0544 -3.60948 0 0 -9.0544zm-4.61815 0l3.6083 0 0 9.0544 -3.6083 0 0 -9.0544z"></path></g></svg>