<svg xmlns:dc="http://purl.org/dc/elements/1.1/" xmlns:cc="http://creativecommons.org/ns#" xmlns:rdf="http://www.w3.org/1999/02/22-rdf-syntax-ns#" xmlns:svg="http://www.w3.org/2000/svg" xmlns="http://www.w3.org/2000/svg" xmlns:sodipodi="http://sodipodi.sourceforge.net/DTD/sodipodi-0.dtd" xmlns:inkscape="http://www.inkscape.org/namespaces/inkscape" viewBox="0 0 32 32" version="1.1" x="0px" y="0px"><g transform="translate(0,-1020.3622)"><text xml:space="preserve" style="letter-spacing:0px;word-spacing:0px;" x="12" y="1036.3622" font-style="normal" font-weight="normal" font-size="11.25px" line-height="125%" font-family="Sans" fill="#000000" fill-opacity="1" stroke="none"><tspan x="12" y="1036.3622"></tspan></text><path style="color:#000000;font-style:normal;font-variant:normal;font-weight:normal;font-stretch:normal;font-size:medium;line-height:normal;font-family:sans-serif;text-indent:0;text-align:start;text-decoration:none;text-decoration-line:none;text-decoration-style:solid;text-decoration-color:#000000;letter-spacing:normal;word-spacing:normal;text-transform:none;direction:ltr;block-progression:tb;writing-mode:lr-tb;baseline-shift:baseline;text-anchor:start;white-space:normal;clip-rule:nonzero;display:inline;overflow:visible;visibility:visible;opacity:1;isolation:auto;mix-blend-mode:normal;color-interpolation:sRGB;color-interpolation-filters:linearRGB;solid-color:#000000;solid-opacity:1;fill:#000000;fill-opacity:1;fill-rule:nonzero;stroke:none;stroke-width:1;stroke-linecap:round;stroke-linejoin:round;stroke-miterlimit:4;stroke-dasharray:none;stroke-dashoffset:0;stroke-opacity:1;color-rendering:auto;image-rendering:auto;shape-rendering:auto;text-rendering:auto;enable-background:accumulate" d="m 5.50391,1022.3617 c -0.27613,0 -0.49997,0.2239 -0.5,0.5 l 0,2.5 5,0 0,1 -5,0 0,2 4,0 0,1 -4,0 0,2 5,0 0,1 -5,0 0,2 4,0 0,1 -4,0 0,2 5,0 0,1 -5,0 0,2 4,0 0,1 -4,0 0,2 5,0 0,1 -5,0 0,2 4,0 0,1 -4,0 0,2.5 c 3e-5,0.2761 0.22387,0.5 0.5,0.5 l 8,0 c 0.27613,0 0.49997,-0.2239 0.5,-0.5 l 0,-27 c -3e-5,-0.2761 -0.22387,-0.5 -0.5,-0.5 l -8,0 z m 15.49218,0 c -1.09935,0 -2,0.9006 -2,2 l 0,2 8,0 0,-2 c 0,-1.0994 -0.90064,-2 -2,-2 l -4,0 z m -2,5 0,15.1699 2.63868,-1.1191 c 0.063,-0.026 0.13083,-0.04 0.19921,-0.039 0.11746,9e-4 0.23082,0.043 0.32032,0.1192 l 1.9375,1.6562 2.90429,-0.9687 0,-14.8184 -8,0 z m 2,1 1,0 0,12 -1,0 0,-12 z m 0.74415,14.0918 -2.48243,1.0527 3.29102,6.5801 c 0.18428,0.3686 0.71025,0.3686 0.89453,0 l 3.39844,-6.7969 -2.69727,0.8965 c -0.16637,0.057 -0.35026,0.022 -0.48437,-0.092 l -1.91992,-1.6405 z"></path></g></svg>