<svg xmlns:dc="http://purl.org/dc/elements/1.1/" xmlns:cc="http://creativecommons.org/ns#" xmlns:rdf="http://www.w3.org/1999/02/22-rdf-syntax-ns#" xmlns:svg="http://www.w3.org/2000/svg" xmlns="http://www.w3.org/2000/svg" xmlns:sodipodi="http://sodipodi.sourceforge.net/DTD/sodipodi-0.dtd" xmlns:inkscape="http://www.inkscape.org/namespaces/inkscape" viewBox="0 0 8.4666665 8.4666669" version="1.1" x="0px" y="0px"><g transform="translate(0,-288.53332)"><path d="m 0.52968075,289.88931 c -0.21792142,0 -0.39739095,0.17997 -0.39739095,0.39791 l 0,3.30626 4.9676554,0 0,-1.32809 c 0,-0.0702 0.056359,-0.12712 0.1255739,-0.12712 l 2.0510368,0 0,-1.85105 c 0,-0.21796 -0.1794695,-0.39791 -0.3973909,-0.39791 z" style="color:#000000;font-style:normal;font-variant:normal;font-weight:normal;font-stretch:normal;font-size:medium;line-height:normal;font-family:sans-serif;text-indent:0;text-align:start;text-decoration:none;text-decoration-line:none;text-decoration-style:solid;text-decoration-color:#000000;letter-spacing:normal;word-spacing:normal;text-transform:none;direction:ltr;writing-mode:lr-tb;baseline-shift:baseline;text-anchor:start;white-space:normal;clip-rule:nonzero;display:inline;overflow:visible;visibility:visible;opacity:1;isolation:auto;mix-blend-mode:normal;color-interpolation:sRGB;color-interpolation-filters:linearRGB;solid-color:#000000;solid-opacity:1;fill:#000000;fill-opacity:1;fill-rule:nonzero;stroke:none;stroke-width:1.00000012;stroke-linecap:butt;stroke-linejoin:round;stroke-miterlimit:4;stroke-dasharray:none;stroke-dashoffset:0;stroke-opacity:1;color-rendering:auto;image-rendering:auto;shape-rendering:auto;text-rendering:auto;enable-background:accumulate"></path><path d="m 0.1322898,293.85806 0,0.39739 c 0,0.21794 0.17945365,0.3974 0.39739095,0.3974 l 4.57026445,0 0,-0.79479 z m 3.572391,0.2651 c 0.073062,0 0.1322917,0.0592 0.1322917,0.13229 0,0.0731 -0.05923,0.13229 -0.1322917,0.13229 -0.073062,0 -0.1322916,-0.0592 -0.1322916,-0.13229 0,-0.0731 0.05923,-0.13229 0.1322916,-0.13229 z" style="color:#000000;font-style:normal;font-variant:normal;font-weight:normal;font-stretch:normal;font-size:medium;line-height:normal;font-family:sans-serif;text-indent:0;text-align:start;text-decoration:none;text-decoration-line:none;text-decoration-style:solid;text-decoration-color:#000000;letter-spacing:normal;word-spacing:normal;text-transform:none;direction:ltr;writing-mode:lr-tb;baseline-shift:baseline;text-anchor:start;white-space:normal;clip-rule:nonzero;display:inline;overflow:visible;visibility:visible;opacity:1;isolation:auto;mix-blend-mode:normal;color-interpolation:sRGB;color-interpolation-filters:linearRGB;solid-color:#000000;solid-opacity:1;fill:#000000;fill-opacity:1;fill-rule:nonzero;stroke:none;stroke-width:1.00000012;stroke-linecap:butt;stroke-linejoin:round;stroke-miterlimit:4;stroke-dasharray:none;stroke-dashoffset:0;stroke-opacity:1;color-rendering:auto;image-rendering:auto;shape-rendering:auto;text-rendering:auto;enable-background:accumulate"></path><path d="m 2.9437524,294.85025 -0.066146,0.46302 -0.4630208,0.33073 2.5796875,0 -0.4630208,-0.33073 -0.066146,-0.46302 z" style="color:#000000;font-style:normal;font-variant:normal;font-weight:normal;font-stretch:normal;font-size:medium;line-height:normal;font-family:sans-serif;text-indent:0;text-align:start;text-decoration:none;text-decoration-line:none;text-decoration-style:solid;text-decoration-color:#000000;letter-spacing:normal;word-spacing:normal;text-transform:none;direction:ltr;writing-mode:lr-tb;baseline-shift:baseline;text-anchor:start;white-space:normal;clip-rule:nonzero;display:inline;overflow:visible;visibility:visible;opacity:1;isolation:auto;mix-blend-mode:normal;color-interpolation:sRGB;color-interpolation-filters:linearRGB;solid-color:#000000;solid-opacity:1;fill:#000000;fill-opacity:1;fill-rule:evenodd;stroke:none;stroke-width:1;stroke-linecap:round;stroke-linejoin:round;stroke-miterlimit:4;stroke-dasharray:none;stroke-dashoffset:0;stroke-opacity:1;color-rendering:auto;image-rendering:auto;shape-rendering:auto;text-rendering:auto;enable-background:accumulate"></path><path d="m 5.4172408,292.3367 c -0.069215,0 -0.1255739,0.0569 -0.1255739,0.12713 l 0,3.05303 c 0,0.0703 0.056359,0.12713 0.1255739,0.12713 l 1.3296345,0 0,-2.48046 a 0.13925439,0.16536472 0 0 1 0.1390095,-0.16537 l 0.7870322,0 0,-0.53433 c 0,-0.0702 -0.056356,-0.12713 -0.1255739,-0.12713 z m 1.0650512,2.64584 a 0.13229167,0.13229168 0 0 1 0.1322916,0.13229 0.13229167,0.13229168 0 0 1 -0.1322916,0.13229 0.13229167,0.13229168 0 0 1 -0.1322917,-0.13229 0.13229167,0.13229168 0 0 1 0.1322917,-0.13229 z" style="" fill="#000000" fill-opacity="1" fill-rule="evenodd" stroke="none"></path><path d="m 7.1504681,293.26274 a 0.13925439,0.13229168 0 0 0 -0.1390094,0.1323 l 0,2.11666 a 0.13925439,0.13229168 0 0 0 0.1390094,0.13229 l 1.0448978,0 a 0.13925439,0.13229168 0 0 0 0.1390095,-0.13229 l 0,-2.11666 a 0.13925439,0.13229167 0 0 0 -0.1390095,-0.1323 z m 0.5224489,1.7198 a 0.13229167,0.13229168 0 0 1 0.1322917,0.13229 0.13229167,0.13229168 0 0 1 -0.1322917,0.13229 0.13229167,0.13229168 0 0 1 -0.1322917,-0.13229 0.13229167,0.13229168 0 0 1 0.1322917,-0.13229 z" style="" fill="#000000" fill-opacity="1" fill-rule="evenodd" stroke="none"></path><path style="" d="m 5.4172408,292.3367 c -0.069215,0 -0.1255739,0.0569 -0.1255739,0.12713 l 0,3.05303 c 0,0.0703 0.056359,0.12713 0.1255739,0.12713 l 1.3296345,0 0,-2.48046 a 0.13925439,0.16536472 0 0 1 0.1390095,-0.16537 l 0.7870322,0 0,-0.53433 c 0,-0.0702 -0.056356,-0.12713 -0.1255739,-0.12713 z m 1.0650512,2.64584 a 0.13229167,0.13229168 0 0 1 0.1322916,0.13229 0.13229167,0.13229168 0 0 1 -0.1322916,0.13229 0.13229167,0.13229168 0 0 1 -0.1322917,-0.13229 0.13229167,0.13229168 0 0 1 0.1322917,-0.13229 z" fill="#000000" fill-opacity="1" fill-rule="evenodd" stroke="none"></path><path style="" d="m 7.1504681,293.26274 a 0.13925439,0.13229168 0 0 0 -0.1390094,0.1323 l 0,2.11666 a 0.13925439,0.13229168 0 0 0 0.1390094,0.13229 l 1.0448978,0 a 0.13925439,0.13229168 0 0 0 0.1390095,-0.13229 l 0,-2.11666 a 0.13925439,0.13229167 0 0 0 -0.1390095,-0.1323 z m 0.5224489,1.7198 a 0.13229167,0.13229168 0 0 1 0.1322917,0.13229 0.13229167,0.13229168 0 0 1 -0.1322917,0.13229 0.13229167,0.13229168 0 0 1 -0.1322917,-0.13229 0.13229167,0.13229168 0 0 1 0.1322917,-0.13229 z" fill="#000000" fill-opacity="1" fill-rule="evenodd" stroke="none"></path></g></svg>