<svg xmlns="http://www.w3.org/2000/svg" xmlns:xlink="http://www.w3.org/1999/xlink" version="1.1" x="0px" y="0px" viewBox="0 0 45 45" enable-background="new 0 0 45 45" xml:space="preserve"><path d="M22.5,11.066c-8.463,0-15.848,4.601-19.801,11.435C6.652,29.334,14.037,33.934,22.5,33.934s15.847-4.6,19.801-11.433  C38.347,15.667,30.963,11.066,22.5,11.066z M22.5,31.379c-4.903,0-8.877-3.975-8.877-8.878c0-4.903,3.974-8.878,8.877-8.878  c4.902,0,8.878,3.975,8.878,8.878C31.378,27.404,27.402,31.379,22.5,31.379z"></path><path d="M26.26,21.197c-1.357,0-2.457-1.1-2.457-2.455c0-0.826,0.411-1.554,1.035-1.998c-0.722-0.295-1.51-0.459-2.338-0.459  c-3.434,0-6.216,2.782-6.216,6.216c0,3.433,2.782,6.216,6.216,6.216s6.217-2.783,6.217-6.216c0-0.828-0.165-1.616-0.459-2.339  C27.813,20.787,27.086,21.197,26.26,21.197z"></path></svg>