<svg xmlns="http://www.w3.org/2000/svg" xmlns:xlink="http://www.w3.org/1999/xlink" version="1.1" x="0px" y="0px" viewBox="0 0 128 128" style="enable-background:new 0 0 128 128;" xml:space="preserve"><path d="M100.5,7.4c-2.7-2.7-5.9-4.1-9.7-4.1H37.2c-3.8,0-7,1.4-9.7,4.1c-2.7,2.7-4.1,5.9-4.1,9.7v93.8c0,3.8,1.4,7,4.1,9.7  c2.7,2.7,5.9,4.1,9.7,4.1h53.6c3.8,0,7-1.3,9.7-4.1c2.7-2.7,4.1-5.9,4.1-9.7V17.1C104.6,13.3,103.2,10.1,100.5,7.4z M67.9,119.2  c-1.1,1.1-2.4,1.6-3.9,1.6c-1.5,0-2.8-0.5-3.9-1.6c-1.1-1.1-1.6-2.4-1.6-3.9c0-1.5,0.5-2.8,1.6-3.9c1.1-1.1,2.4-1.6,3.9-1.6  c1.5,0,2.8,0.5,3.9,1.6c1.1,1.1,1.6,2.4,1.6,3.9C69.5,116.8,69,118.1,67.9,119.2z M96.3,99.9c0,1.5-0.6,2.8-1.6,3.8  c-1.1,1.1-2.4,1.6-3.9,1.6H37.2c-1.5,0-2.8-0.6-3.9-1.6c-1.1-1.1-1.6-2.4-1.6-3.9V17.1c0-1.5,0.6-2.8,1.6-3.9  c1.1-1.1,2.4-1.6,3.9-1.6h53.6c1.5,0,2.8,0.6,3.9,1.6c1.1,1.1,1.6,2.4,1.6,3.9V99.9z"></path></svg>