<svg xmlns="http://www.w3.org/2000/svg" xmlns:xlink="http://www.w3.org/1999/xlink" viewBox="0 0 60 52" version="1.1" x="0px" y="0px"><title>19 -Painting- (Solid)</title><desc>Created with Sketch.</desc><g stroke="none" stroke-width="1" fill="none" fill-rule="evenodd"><g transform="translate(-1080.000000, -494.000000)" fill="#000000"><g transform="translate(1080.000000, 494.000000)"><path d="M56,50.0045 C55.316,50.0045 54.687,49.6545 54.315,49.0695 C54.126,48.7705 53.802,48.6045 53.47,48.6045 C53.303,48.6045 53.134,48.6465 52.979,48.7345 C51.861,49.3655 50.521,48.7845 50.126,47.6695 C49.984,47.2715 49.606,47.0045 49.184,47.0045 L10.816,47.0045 C10.394,47.0045 10.016,47.2715 9.874,47.6695 C9.479,48.7845 8.14,49.3655 7.021,48.7345 C6.558,48.4705 5.969,48.6195 5.685,49.0695 C5.313,49.6545 4.684,50.0045 4,50.0045 C2.897,50.0045 2,49.1075 2,48.0045 C2,47.3205 2.35,46.6905 2.936,46.3195 C3.387,46.0335 3.533,45.4445 3.27,44.9805 C3.091,44.6655 3,44.3375 3,44.0045 C3,43.1675 3.536,42.4145 4.335,42.1295 C4.733,41.9885 5,41.6105 5,41.1885 L5,10.8205 C5,10.3985 4.733,10.0205 4.335,9.8795 C3.536,9.5945 3,8.8415 3,8.0045 C3,7.6715 3.091,7.3435 3.27,7.0285 C3.533,6.5645 3.387,5.9755 2.936,5.6895 C2.35,5.3185 2,4.6885 2,4.0045 C2,2.9015 2.897,2.0045 4,2.0045 C4.684,2.0045 5.313,2.3545 5.685,2.9395 C5.969,3.3885 6.558,3.5365 7.021,3.2745 C8.14,2.6435 9.479,3.2245 9.874,4.3395 C10.016,4.7375 10.394,5.0045 10.816,5.0045 L49.184,5.0045 C49.606,5.0045 49.984,4.7375 50.126,4.3395 C50.521,3.2245 51.861,2.6435 52.979,3.2745 C53.442,3.5365 54.03,3.3885 54.315,2.9395 C54.687,2.3545 55.316,2.0045 56,2.0045 C57.103,2.0045 58,2.9015 58,4.0045 C58,4.6885 57.65,5.3185 57.064,5.6895 C56.613,5.9755 56.467,6.5645 56.73,7.0285 C56.909,7.3435 57,7.6715 57,8.0045 C57,8.8415 56.464,9.5945 55.665,9.8795 C55.267,10.0205 55,10.3985 55,10.8205 L55,41.1885 C55,41.6105 55.267,41.9885 55.665,42.1295 C56.464,42.4145 57,43.1675 57,44.0045 C57,44.3375 56.909,44.6655 56.73,44.9805 C56.467,45.4445 56.613,46.0335 57.064,46.3195 C57.65,46.6905 58,47.3205 58,48.0045 C58,49.1075 57.103,50.0045 56,50.0045 M59,44.0045 C59,42.5695 58.22,41.2595 57,40.5535 L57,11.4555 C58.22,10.7495 59,9.4395 59,8.0045 C59,7.6055 58.939,7.2145 58.818,6.8355 C59.569,6.0935 60,5.0835 60,4.0045 C60,1.7985 58.206,0.0045 56,0.0045 C54.921,0.0045 53.911,0.4345 53.169,1.1855 C52.789,1.0655 52.398,1.0045 52,1.0045 C50.564,1.0045 49.254,1.7845 48.549,3.0045 L11.451,3.0045 C10.746,1.7845 9.436,1.0045 8,1.0045 C7.602,1.0045 7.211,1.0655 6.831,1.1855 C6.089,0.4345 5.079,0.0045 4,0.0045 C1.794,0.0045 0,1.7985 0,4.0045 C0,5.0835 0.431,6.0935 1.182,6.8355 C1.061,7.2145 1,7.6055 1,8.0045 C1,9.4395 1.78,10.7495 3,11.4555 L3,40.5535 C1.78,41.2595 1,42.5695 1,44.0045 C1,44.4035 1.061,44.7945 1.182,45.1735 C0.431,45.9155 0,46.9255 0,48.0045 C0,50.2105 1.794,52.0045 4,52.0045 C5.079,52.0045 6.089,51.5745 6.831,50.8235 C7.211,50.9435 7.602,51.0045 8,51.0045 C9.436,51.0045 10.746,50.2245 11.451,49.0045 L48.549,49.0045 C49.254,50.2245 50.564,51.0045 52,51.0045 C52.398,51.0045 52.789,50.9435 53.169,50.8235 C53.911,51.5745 54.921,52.0045 56,52.0045 C58.206,52.0045 60,50.2105 60,48.0045 C60,46.9255 59.569,45.9155 58.818,45.1735 C58.939,44.7945 59,44.4035 59,44.0045"></path><path d="M41,19.0045 C42.103,19.0045 43,18.1075 43,17.0045 C43,15.9015 42.103,15.0045 41,15.0045 C39.897,15.0045 39,15.9015 39,17.0045 C39,18.1075 39.897,19.0045 41,19.0045"></path><path d="M32.0469,34.0587 C31.8529,34.3317 31.5699,34.4897 31.1969,34.4767 C30.8619,34.4647 30.5549,34.2857 30.3799,33.9987 L22.9999,21.9227 L13.7829,37.0047 L46.0569,37.0047 L37.9999,25.7247 L32.0469,34.0587 Z"></path><path d="M48.8896,38.4621 C48.7176,38.7951 48.3746,39.0041 47.9996,39.0041 L11.9996,39.0041 C11.6386,39.0041 11.3046,38.8091 11.1276,38.4941 C10.9516,38.1781 10.9576,37.7921 11.1466,37.4831 L22.1466,19.4831 C22.5096,18.8881 23.4906,18.8881 23.8536,19.4831 L31.2986,31.6661 L37.1866,23.4231 C37.5616,22.8971 38.4386,22.8971 38.8136,23.4231 L48.8136,37.4231 C49.0316,37.7281 49.0606,38.1291 48.8896,38.4621 M35.9996,16.0041 L37.1426,16.0041 C37.2366,15.6411 37.3806,15.3011 37.5666,14.9851 L36.7576,14.1761 C36.3676,13.7851 36.3676,13.1521 36.7576,12.7621 C37.1486,12.3711 37.7816,12.3711 38.1716,12.7621 L38.9806,13.5711 C39.2966,13.3851 39.6366,13.2411 39.9996,13.1471 L39.9996,12.0041 C39.9996,11.4521 40.4476,11.0041 40.9996,11.0041 C41.5526,11.0041 41.9996,11.4521 41.9996,12.0041 L41.9996,13.1471 C42.3636,13.2411 42.7026,13.3851 43.0196,13.5711 L43.8276,12.7621 C44.2186,12.3711 44.8516,12.3711 45.2426,12.7621 C45.6326,13.1521 45.6326,13.7851 45.2426,14.1761 L44.4336,14.9851 C44.6186,15.3011 44.7636,15.6411 44.8576,16.0041 L45.9996,16.0041 C46.5526,16.0041 46.9996,16.4521 46.9996,17.0041 C46.9996,17.5571 46.5526,18.0041 45.9996,18.0041 L44.8576,18.0041 C44.7636,18.3681 44.6186,18.7081 44.4336,19.0241 L45.2426,19.8331 C45.6326,20.2241 45.6326,20.8571 45.2426,21.2471 C45.0466,21.4421 44.7906,21.5401 44.5356,21.5401 C44.2796,21.5401 44.0236,21.4421 43.8276,21.2471 L43.0196,20.4381 C42.7026,20.6241 42.3636,20.7681 41.9996,20.8621 L41.9996,22.0041 C41.9996,22.5571 41.5526,23.0041 40.9996,23.0041 C40.4476,23.0041 39.9996,22.5571 39.9996,22.0041 L39.9996,20.8621 C39.6366,20.7681 39.2966,20.6241 38.9806,20.4381 L38.1716,21.2471 C37.9766,21.4421 37.7206,21.5401 37.4646,21.5401 C37.2086,21.5401 36.9526,21.4421 36.7576,21.2471 C36.3676,20.8571 36.3676,20.2241 36.7576,19.8331 L37.5666,19.0241 C37.3806,18.7081 37.2366,18.3681 37.1426,18.0041 L35.9996,18.0041 C35.4476,18.0041 34.9996,17.5571 34.9996,17.0041 C34.9996,16.4521 35.4476,16.0041 35.9996,16.0041 M51.9996,7.0041 L7.9996,7.0041 C7.4476,7.0041 6.9996,7.4521 6.9996,8.0041 L6.9996,44.0041 C6.9996,44.5571 7.4476,45.0041 7.9996,45.0041 L51.9996,45.0041 C52.5526,45.0041 52.9996,44.5571 52.9996,44.0041 L52.9996,8.0041 C52.9996,7.4521 52.5526,7.0041 51.9996,7.0041"></path></g></g></g></svg>