<svg xmlns="http://www.w3.org/2000/svg" xmlns:xlink="http://www.w3.org/1999/xlink" version="1.1" x="0px" y="0px" viewBox="0 0 100 100" enable-background="new 0 0 100 100" xml:space="preserve"><g><g><path fill="#000000" d="M83.028,37.688C78.266,24.012,65.25,14.167,49.972,14.167c-17.107,0-31.378,12.342-34.401,28.586    l-2.063-2.063c-1.953-1.952-5.118-1.952-7.071,0c-1.953,1.953-1.953,5.119,0,7.071l10.607,10.607    c0.977,0.977,2.256,1.465,3.536,1.465s2.559-0.488,3.536-1.465l10.607-10.607c1.953-1.953,1.953-5.119,0-7.071    c-1.953-1.952-5.118-1.952-7.071,0l-1.753,1.753c2.945-10.529,12.619-18.276,24.074-18.276c10.484,0,19.476,6.49,23.184,15.661    l0.905-0.905C76.491,36.492,80.171,36.085,83.028,37.688z"></path></g><g><path fill="#000000" d="M16.972,62.312c4.763,13.677,17.778,23.521,33.057,23.521c17.107,0,31.379-12.342,34.4-28.586l2.064,2.062    c1.953,1.953,5.117,1.953,7.07,0c1.953-1.952,1.953-5.118,0-7.07L82.956,41.632c-0.977-0.977-2.256-1.465-3.535-1.465    s-2.559,0.488-3.535,1.465L65.278,52.239c-1.953,1.952-1.953,5.118,0,7.07c1.953,1.953,5.117,1.953,7.07,0l1.754-1.753    c-2.945,10.528-12.619,18.276-24.074,18.276c-10.484,0-19.476-6.49-23.184-15.66l-0.905,0.904    C23.509,63.508,19.829,63.915,16.972,62.312z"></path></g></g></svg>