<svg xmlns="http://www.w3.org/2000/svg" xmlns:xlink="http://www.w3.org/1999/xlink" viewBox="0 0 37 30" version="1.1" x="0px" y="0px"><title>sketch</title><desc>Created with Sketch.</desc><g stroke="none" stroke-width="1" fill="none" fill-rule="evenodd"><g transform="translate(-282.000000, -180.000000)" fill="#000000"><g transform="translate(282.000000, 180.000000)"><path d="M28.9155,7.1312 L29.2665,4.9272 L31.2285,7.1312 L28.9155,7.1312 Z M28.1295,10.1312 L31.4385,10.1312 L24.2745,18.7502 L28.1295,10.1312 Z M8.6125,10.1312 L12.4405,18.5422 L5.4495,10.1312 L8.6125,10.1312 Z M10.6505,5.9112 L10.2265,3.2442 L14.0355,3.2442 L10.6505,5.9112 Z M26.0765,5.8802 L22.7115,3.2442 L26.4965,3.2442 L26.0765,5.8802 Z M13.9495,7.1312 L18.3655,3.6522 L22.8085,7.1312 L13.9495,7.1312 Z M24.8435,10.1312 L18.4325,24.4642 L11.9095,10.1312 L24.8435,10.1312 Z M7.4815,5.0852 L7.8075,7.1312 L5.6605,7.1312 L7.4815,5.0852 Z M35.7255,7.6712 L29.5615,0.7472 C29.2765,0.4272 28.8695,0.2442 28.4405,0.2442 L18.3605,0.2442 L18.3595,0.2442 L8.4475,0.2442 C8.0195,0.2442 7.6125,0.4272 7.3275,0.7472 L1.1635,7.6712 C0.6695,8.2252 0.6555,9.0562 1.1295,9.6272 L17.2915,29.0692 C17.2955,29.0742 17.3005,29.0782 17.3045,29.0822 C17.3215,29.1032 17.3435,29.1182 17.3615,29.1372 C17.4325,29.2132 17.5095,29.2802 17.5935,29.3382 C17.6275,29.3622 17.6625,29.3812 17.6985,29.4022 C17.7785,29.4482 17.8615,29.4862 17.9475,29.5172 C17.9845,29.5302 18.0205,29.5442 18.0585,29.5542 C18.1835,29.5882 18.3125,29.6102 18.4445,29.6102 L18.4495,29.6102 C18.4545,29.6102 18.4585,29.6082 18.4635,29.6082 C18.5905,29.6072 18.7135,29.5862 18.8345,29.5532 C18.8725,29.5432 18.9085,29.5282 18.9455,29.5152 C19.0335,29.4842 19.1155,29.4452 19.1955,29.3992 C19.2305,29.3782 19.2655,29.3592 19.2985,29.3362 C19.3865,29.2752 19.4675,29.2042 19.5415,29.1242 C19.5565,29.1082 19.5735,29.0962 19.5875,29.0792 C19.5905,29.0762 19.5945,29.0732 19.5975,29.0692 L35.7585,9.6272 C36.2335,9.0562 36.2195,8.2252 35.7255,7.6712 L35.7255,7.6712 Z"></path></g></g></g></svg>